<svg width="15" height="15" viewBox="0 0 15 15" fill="none" xmlns="http://www.w3.org/2000/svg">
<path d="M11.2079 6.83719C11.1319 6.66938 10.9651 6.5625 10.7813 6.5625H8.90631V0.46875C8.90631 0.21 8.69631 0 8.43756 0H6.56256C6.30381 0 6.09381 0.21 6.09381 0.46875V6.5625H4.21881C4.03506 6.5625 3.86818 6.67031 3.79224 6.83719C3.71537 7.005 3.74537 7.20094 3.86631 7.33969L7.14756 11.0897C7.23662 11.1919 7.36506 11.25 7.50006 11.25C7.63506 11.25 7.76349 11.1909 7.85256 11.0897L11.1338 7.33969C11.2557 7.20188 11.2838 7.005 11.2079 6.83719Z" fill="white"/>
<path d="M12.6562 10.3125V13.125H2.34375V10.3125H0.46875V14.0625C0.46875 14.5809 0.88875 15 1.40625 15H13.5938C14.1122 15 14.5312 14.5809 14.5312 14.0625V10.3125H12.6562Z" fill="white"/>
</svg>
