<svg width="17" height="17" viewBox="0 0 17 17" fill="none" xmlns="http://www.w3.org/2000/svg">
<path d="M12.3084 0H4.69126C2.1045 0 0 2.1046 0 4.69136V12.3085C0 14.8954 2.1045 16.9999 4.69126 16.9999H12.3084C14.8954 16.9999 16.9999 14.8953 16.9999 12.3085V4.69136C17 2.1046 14.8954 0 12.3084 0ZM15.4917 12.3085C15.4917 14.0637 14.0637 15.4916 12.3085 15.4916H4.69126C2.93618 15.4917 1.50831 14.0637 1.50831 12.3085V4.69136C1.50831 2.93628 2.93618 1.50831 4.69126 1.50831H12.3084C14.0636 1.50831 15.4916 2.93628 15.4916 4.69136V12.3085H15.4917Z" fill="white"/>
<path d="M8.49995 4.11975C6.08454 4.11975 4.11951 6.08478 4.11951 8.50019C4.11951 10.9155 6.08454 12.8804 8.49995 12.8804C10.9154 12.8804 12.8804 10.9155 12.8804 8.50019C12.8804 6.08478 10.9154 4.11975 8.49995 4.11975ZM8.49995 11.372C6.91632 11.372 5.62782 10.0837 5.62782 8.50009C5.62782 6.91636 6.91622 5.62796 8.49995 5.62796C10.0837 5.62796 11.3721 6.91636 11.3721 8.50009C11.3721 10.0837 10.0836 11.372 8.49995 11.372Z" fill="white"/>
<path d="M13.0641 2.84082C12.7735 2.84082 12.488 2.95847 12.2828 3.16461C12.0766 3.36974 11.958 3.65531 11.958 3.94692C11.958 4.23762 12.0767 4.52309 12.2828 4.72923C12.4879 4.93436 12.7735 5.05301 13.0641 5.05301C13.3557 5.05301 13.6403 4.93436 13.8464 4.72923C14.0525 4.52309 14.1702 4.23752 14.1702 3.94692C14.1702 3.65531 14.0525 3.36974 13.8464 3.16461C13.6413 2.95847 13.3557 2.84082 13.0641 2.84082Z" fill="white"/>
</svg>
