<svg width="21" height="22" viewBox="0 0 21 22" fill="none" xmlns="http://www.w3.org/2000/svg">
<path d="M4.4429 21.214C4.56156 21.0414 4.68249 20.8665 4.80114 20.6939C5.12515 20.2214 5.45145 19.7512 5.77546 19.2788C6.25463 18.5837 6.7338 17.8887 7.21297 17.1936C7.79939 16.3441 8.3858 15.4924 8.97222 14.6429C9.61111 13.7139 10.2523 12.7849 10.8912 11.8581C11.5392 10.9178 12.1872 9.97743 12.8353 9.03708C13.4399 8.16032 14.0423 7.28356 14.647 6.40681C15.1558 5.66861 15.6646 4.9304 16.1735 4.1922C16.5386 3.6607 16.9059 3.12919 17.271 2.59768C17.4444 2.34556 17.6224 2.09344 17.7935 1.83904C17.8004 1.82768 17.8095 1.81633 17.8164 1.80724C17.9761 1.57556 18.0035 1.19624 17.9304 0.932755C17.8574 0.669274 17.6521 0.383079 17.4056 0.253609C17.141 0.115055 16.8192 0.0446415 16.5272 0.14004C16.2328 0.235438 16.0206 0.408064 15.8449 0.66246C15.7263 0.835086 15.6053 1.00998 15.4867 1.18261C15.1627 1.65506 14.8364 2.12524 14.5124 2.59768C14.0332 3.29273 13.554 3.98778 13.0748 4.68282C12.4884 5.53232 11.902 6.38409 11.3156 7.23359C10.6767 8.16259 10.0355 9.09159 9.39663 10.0183C8.7486 10.9587 8.10058 11.899 7.45256 12.8394C6.84789 13.7161 6.2455 14.5929 5.64083 15.4697C5.132 16.2079 4.62316 16.9461 4.11433 17.6843C3.74925 18.2158 3.38188 18.7473 3.0168 19.2788C2.84338 19.5309 2.6654 19.783 2.49427 20.0374C2.48743 20.0488 2.4783 20.0601 2.47145 20.0692C2.31173 20.3009 2.28435 20.6802 2.35737 20.9437C2.43038 21.2072 2.63574 21.4934 2.88217 21.6229C3.14686 21.7614 3.46859 21.8318 3.76065 21.7364C4.05728 21.641 4.26949 21.4684 4.4429 21.214Z" fill="white"/>
<path d="M3.88159 0.966826C3.12404 0.971369 2.32998 1.18942 1.70934 1.63233C1.52223 1.76634 1.33513 1.90717 1.16856 2.06616C1.00427 2.22288 0.869643 2.40232 0.730454 2.58403C0.497713 2.88612 0.34027 3.22909 0.207927 3.58569C0.0755839 3.94457 0.0162577 4.33751 0.00256699 4.71683C-0.00427834 4.86901 0.00256703 5.02346 0.023103 5.17564C0.0527661 5.40959 0.0801474 5.64354 0.144037 5.87067C0.246717 6.23182 0.401878 6.59296 0.60952 6.90414C0.812598 7.2085 1.0499 7.50604 1.33513 7.73772C1.5131 7.88309 1.69793 8.02846 1.89644 8.14657C2.09268 8.26468 2.30488 8.35099 2.51709 8.4373C2.87989 8.58494 3.26551 8.64853 3.65569 8.68033C4.04131 8.71213 4.44519 8.66443 4.8194 8.57358C5.1822 8.48727 5.54272 8.33736 5.86217 8.14657C6.49194 7.76952 7.05554 7.19487 7.35902 6.52482C7.45485 6.31131 7.55069 6.09554 7.61458 5.87067C7.68075 5.63899 7.70813 5.39823 7.73779 5.15974C7.78571 4.77361 7.74008 4.37612 7.66478 3.99681C7.59176 3.63112 7.44344 3.26998 7.26547 2.94517C7.08749 2.62037 6.8479 2.31374 6.57865 2.05707C6.31396 1.80495 6.00593 1.57328 5.67735 1.40974C5.33508 1.23939 4.97 1.09629 4.59122 1.03951C4.35848 1.0009 4.12118 0.969098 3.88159 0.966826C3.58952 0.964555 3.28148 1.09402 3.07384 1.29844C2.87533 1.49605 2.72701 1.81858 2.7407 2.1025C2.76808 2.72031 3.24269 3.23363 3.88159 3.23818C4.00937 3.23818 4.13487 3.24726 4.26037 3.26316C4.15997 3.24953 4.05729 3.23591 3.95689 3.22228C4.19191 3.25635 4.41781 3.31767 4.63686 3.40853C4.54559 3.36992 4.45432 3.3313 4.36533 3.29496C4.58666 3.38809 4.7943 3.51074 4.98597 3.65611C4.90839 3.59705 4.83309 3.538 4.75551 3.47894C4.93577 3.61976 5.09778 3.78103 5.23925 3.96047C5.17992 3.88324 5.1206 3.80829 5.06127 3.73106C5.2073 3.92185 5.33052 4.12855 5.42407 4.34887C5.38528 4.25801 5.34649 4.16716 5.30998 4.07858C5.40125 4.29663 5.46286 4.52149 5.49709 4.75544C5.4834 4.6555 5.46971 4.55329 5.45602 4.45335C5.49024 4.70547 5.49024 4.95759 5.45602 5.20744C5.46971 5.1075 5.4834 5.00529 5.49709 4.90535C5.46286 5.1393 5.40125 5.36416 5.30998 5.58221C5.34877 5.49136 5.38756 5.4005 5.42407 5.31192C5.33052 5.53224 5.2073 5.73893 5.06127 5.92973C5.1206 5.8525 5.17992 5.77755 5.23925 5.70032C5.09778 5.87976 4.93577 6.04102 4.75551 6.18185C4.83309 6.12279 4.90839 6.06374 4.98597 6.00468C4.7943 6.15005 4.58666 6.2727 4.36533 6.36583C4.4566 6.32721 4.54787 6.2886 4.63686 6.25226C4.41781 6.34311 4.19191 6.40444 3.95689 6.43851C4.05729 6.42488 4.15997 6.41125 4.26037 6.39763C4.00709 6.4317 3.75381 6.4317 3.50281 6.39763C3.60321 6.41125 3.70589 6.42488 3.80629 6.43851C3.57127 6.40444 3.34537 6.34311 3.12632 6.25226C3.21759 6.29087 3.30886 6.32949 3.39785 6.36583C3.17652 6.2727 2.96888 6.15005 2.77721 6.00468C2.85479 6.06374 2.93009 6.12279 3.00767 6.18185C2.82741 6.04102 2.6654 5.87976 2.52393 5.70032C2.58326 5.77755 2.64258 5.8525 2.70191 5.92973C2.55588 5.73893 2.43266 5.53224 2.33911 5.31192C2.3779 5.40277 2.41669 5.49363 2.4532 5.58221C2.36193 5.36416 2.30032 5.1393 2.26609 4.90535C2.27978 5.00529 2.29347 5.1075 2.30716 5.20744C2.27294 4.95532 2.27294 4.7032 2.30716 4.45335C2.29347 4.55329 2.27978 4.6555 2.26609 4.75544C2.30032 4.52149 2.36193 4.29663 2.4532 4.07858C2.41441 4.16943 2.37562 4.26028 2.33911 4.34887C2.43266 4.12855 2.55588 3.92185 2.70191 3.73106C2.64258 3.80829 2.58326 3.88324 2.52393 3.96047C2.6654 3.78103 2.82741 3.61976 3.00767 3.47894C2.93009 3.538 2.85479 3.59705 2.77721 3.65611C2.96888 3.51074 3.17652 3.38809 3.39785 3.29496C3.30658 3.33357 3.21531 3.37219 3.12632 3.40853C3.34537 3.31767 3.57127 3.25635 3.80629 3.22228C3.70589 3.23591 3.60321 3.24953 3.50281 3.26316C3.62831 3.24726 3.75609 3.23818 3.88159 3.23818C4.17594 3.23591 4.47942 3.11325 4.68934 2.90656C4.88785 2.70895 5.03617 2.38642 5.02248 2.1025C5.00879 1.8095 4.91295 1.50514 4.68934 1.29844C4.46572 1.09629 4.18963 0.964555 3.88159 0.966826Z" fill="white"/>
<path d="M16.4086 13.4595C15.651 13.464 14.857 13.6821 14.2363 14.125C14.0492 14.259 13.8621 14.3998 13.6955 14.5588C13.5312 14.7156 13.3966 14.895 13.2574 15.0767C13.0247 15.3788 12.8672 15.7218 12.7349 16.0784C12.6026 16.4372 12.5432 16.8302 12.5295 17.2095C12.5227 17.3617 12.5295 17.5161 12.5501 17.6683C12.5797 17.9023 12.6071 18.1362 12.671 18.3633C12.7737 18.7245 12.9289 19.0856 13.1365 19.3968C13.3396 19.7012 13.5769 19.9987 13.8621 20.2304C14.0401 20.3758 14.2249 20.5211 14.4234 20.6392C14.6197 20.7574 14.8319 20.8437 15.0441 20.93C15.4069 21.0776 15.7925 21.1412 16.1827 21.173C16.5683 21.2048 16.9722 21.1571 17.3464 21.0663C17.7092 20.9799 18.0697 20.83 18.3891 20.6392C19.0189 20.2622 19.5825 19.6875 19.886 19.0175C19.9818 18.804 20.0777 18.5882 20.1416 18.3633C20.2077 18.1317 20.2351 17.8909 20.2648 17.6524C20.3127 17.2663 20.2671 16.8688 20.1918 16.4895C20.1187 16.1238 19.9704 15.7627 19.7924 15.4378C19.6145 15.113 19.3749 14.8064 19.1056 14.5498C18.8409 14.2976 18.5329 14.066 18.2043 13.9024C17.8621 13.7321 17.497 13.589 17.1182 13.5322C16.8855 13.4936 16.6482 13.4618 16.4086 13.4595C16.1165 13.4572 15.8085 13.5867 15.6008 13.7911C15.4023 13.9887 15.254 14.3113 15.2677 14.5952C15.2951 15.213 15.7697 15.7263 16.4086 15.7309C16.5363 15.7309 16.6618 15.7399 16.7873 15.7558C16.6869 15.7422 16.5843 15.7286 16.4839 15.715C16.7189 15.749 16.9448 15.8104 17.1638 15.9012C17.0726 15.8626 16.9813 15.824 16.8923 15.7876C17.1136 15.8808 17.3213 16.0034 17.5129 16.1488C17.4354 16.0897 17.3601 16.0307 17.2825 15.9716C17.4627 16.1124 17.6248 16.2737 17.7662 16.4531C17.7069 16.3759 17.6476 16.301 17.5882 16.2237C17.7343 16.4145 17.8575 16.6212 17.951 16.8415C17.9123 16.7507 17.8735 16.6598 17.837 16.5713C17.9282 16.7893 17.9898 17.0142 18.0241 17.2481C18.0104 17.1482 17.9967 17.046 17.983 16.946C18.0172 17.1981 18.0172 17.4503 17.983 17.7001C17.9967 17.6002 18.0104 17.498 18.0241 17.398C17.9898 17.632 17.9282 17.8568 17.837 18.0749C17.8757 17.984 17.9145 17.8932 17.951 17.8046C17.8575 18.0249 17.7343 18.2316 17.5882 18.4224C17.6476 18.3452 17.7069 18.2702 17.7662 18.193C17.6248 18.3724 17.4627 18.5337 17.2825 18.6745C17.3601 18.6155 17.4354 18.5564 17.5129 18.4974C17.3213 18.6427 17.1136 18.7654 16.8923 18.8585C16.9836 18.8199 17.0748 18.7813 17.1638 18.7449C16.9448 18.8358 16.7189 18.8971 16.4839 18.9312C16.5843 18.9176 16.6869 18.9039 16.7873 18.8903C16.5341 18.9244 16.2808 18.9244 16.0298 18.8903C16.1302 18.9039 16.2329 18.9176 16.3333 18.9312C16.0982 18.8971 15.8723 18.8358 15.6533 18.7449C15.7446 18.7835 15.8358 18.8222 15.9248 18.8585C15.7035 18.7654 15.4959 18.6427 15.3042 18.4974C15.3818 18.5564 15.4571 18.6155 15.5346 18.6745C15.3544 18.5337 15.1924 18.3724 15.0509 18.193C15.1102 18.2702 15.1696 18.3452 15.2289 18.4224C15.0829 18.2316 14.9596 18.0249 14.8661 17.8046C14.9049 17.8955 14.9437 17.9863 14.9802 18.0749C14.8889 17.8568 14.8273 17.632 14.7931 17.398C14.8068 17.498 14.8204 17.6002 14.8341 17.7001C14.7999 17.448 14.7999 17.1959 14.8341 16.946C14.8204 17.046 14.8068 17.1482 14.7931 17.2481C14.8273 17.0142 14.8889 16.7893 14.9802 16.5713C14.9414 16.6621 14.9026 16.753 14.8661 16.8415C14.9596 16.6212 15.0829 16.4145 15.2289 16.2237C15.1696 16.301 15.1102 16.3759 15.0509 16.4531C15.1924 16.2737 15.3544 16.1124 15.5346 15.9716C15.4571 16.0307 15.3818 16.0897 15.3042 16.1488C15.4959 16.0034 15.7035 15.8808 15.9248 15.7876C15.8336 15.8262 15.7423 15.8649 15.6533 15.9012C15.8723 15.8104 16.0982 15.749 16.3333 15.715C16.2329 15.7286 16.1302 15.7422 16.0298 15.7558C16.1553 15.7399 16.2831 15.7309 16.4086 15.7309C16.7029 15.7286 17.0064 15.6059 17.2163 15.3992C17.4148 15.2016 17.5631 14.8791 17.5495 14.5952C17.5358 14.3022 17.4399 13.9978 17.2163 13.7911C16.9927 13.589 16.7166 13.4572 16.4086 13.4595Z" fill="white"/>
</svg>
