<svg width="15" height="19" viewBox="0 0 15 19" fill="none" xmlns="http://www.w3.org/2000/svg">
<path d="M7.5 16.3205C8.42213 14.9808 9.46721 13.9455 10.4508 12.9712C12.1107 11.2051 13.5861 9.74359 13.5861 7.42949C13.5861 4.08013 10.8811 1.40064 7.5 1.40064C4.11885 1.40064 1.41393 4.08013 1.41393 7.42949C1.41393 9.74359 2.88934 11.2051 4.54918 12.9712C5.53279 13.9455 6.57787 14.9808 7.5 16.3205ZM11.4344 13.8846C9.71311 15.6506 8.72951 16.8686 7.5 19C6.27049 16.8686 5.28689 15.6506 3.56557 13.8846C1.65984 11.9359 0 10.2917 0 7.42949C0 3.34936 3.38115 0 7.5 0C11.6189 0 15 3.34936 15 7.42949C15 10.2917 13.3402 11.9359 11.4344 13.8846Z" fill="#20212B"/>
<path d="M7.5 4.01926C9.40573 4.01926 10.9426 5.54169 10.9426 7.42951C10.9426 9.31733 9.40573 10.8398 7.5 10.8398C5.59426 10.8398 4.05737 9.31733 4.05737 7.42951C4.05737 5.54169 5.59426 4.01926 7.5 4.01926ZM7.5 5.359C6.33196 5.359 5.40983 6.27246 5.40983 7.42951C5.40983 8.52567 6.33196 9.43913 7.5 9.43913C8.60655 9.43913 9.52868 8.52567 9.52868 7.42951C9.52868 6.27246 8.60655 5.359 7.5 5.359Z" fill="#20212B"/>
</svg>
