<svg width="16" height="16" viewBox="0 0 16 16" fill="none" xmlns="http://www.w3.org/2000/svg">
<path d="M8.2908 8.53115L1.75877 9.1835L0.0395468 14.856C-0.0106612 15.0201 -0.013115 15.1957 0.03249 15.3612C0.0780949 15.5267 0.169754 15.6748 0.296111 15.787C0.422468 15.8993 0.57797 15.9708 0.743351 15.9928C0.908731 16.0148 1.07672 15.9862 1.22651 15.9106L15.5425 8.75806C15.6797 8.689 15.7953 8.58157 15.8762 8.44799C15.9571 8.31442 16 8.16008 16 8.00258C16 7.84507 15.9571 7.69074 15.8762 7.55717C15.7953 7.42359 15.6797 7.31615 15.5425 7.2471L1.2365 0.0894148C1.08672 0.0138198 0.918726 -0.0147684 0.753346 0.00719221C0.587966 0.0291528 0.432464 0.100697 0.306107 0.212961C0.17975 0.325225 0.0880906 0.473274 0.0424856 0.638767C-0.00311934 0.804259 -0.000665988 0.97992 0.049542 1.14399L1.76876 6.81651L8.28831 7.46885C8.41544 7.48182 8.53335 7.54311 8.61913 7.6408C8.70491 7.73849 8.75241 7.8656 8.75241 7.99742C8.75241 8.12924 8.70491 8.25635 8.61913 8.35404C8.53335 8.45174 8.41544 8.51303 8.28831 8.526L8.2908 8.53115Z" fill="white"/>
</svg>
