<svg width="51" height="51" viewBox="0 0 51 51" fill="none" xmlns="http://www.w3.org/2000/svg">
<path d="M23.2134 28.2553L20.9919 26.0338C20.5637 25.6056 19.8457 25.5741 19.3969 26.023L18.0504 27.3695C17.628 27.7919 17.6063 28.5095 18.0613 28.9645L20.2828 31.186C20.711 31.6142 21.429 31.6457 21.8778 31.1969L23.2243 29.8504C23.6467 29.4279 23.6417 28.6836 23.2134 28.2553Z" fill="white" fill-opacity="0.2"/>
<path d="M17.4856 22.5274L15.2641 20.3059C14.8359 19.8777 14.118 19.8462 13.6691 20.295L12.3226 21.6415C11.9002 22.064 11.8785 22.7815 12.3335 23.2366L14.555 25.4581C14.9833 25.8863 15.7012 25.9178 16.15 25.4689L17.4965 24.1224C17.919 23.7 17.9139 22.9557 17.4856 22.5274Z" fill="white" fill-opacity="0.2"/>
<path d="M28.1508 23.3178L25.9293 21.0963C25.5011 20.6681 24.7831 20.6366 24.3343 21.0855L22.9878 22.432C22.5654 22.8544 22.5437 23.572 22.9987 24.027L25.2202 26.2485C25.6484 26.6767 26.3664 26.7082 26.8152 26.2594L28.1617 24.9129C28.5841 24.4904 28.579 23.7461 28.1508 23.3178Z" fill="white" fill-opacity="0.2"/>
<path d="M22.423 17.5902L20.2015 15.3687C19.7733 14.9405 19.0553 14.909 18.6065 15.3579L17.26 16.7044C16.8376 17.1268 16.8159 17.8444 17.2709 18.2994L19.4924 20.5209C19.9206 20.9491 20.6386 20.9806 21.0874 20.5318L22.4339 19.1853C22.8563 18.7628 22.8513 18.0185 22.423 17.5902Z" fill="white" fill-opacity="0.2"/>
<path d="M33.8785 29.0458L31.657 26.8243C31.2287 26.396 30.5108 26.3645 30.0619 26.8134L28.7154 28.1599C28.293 28.5823 28.2713 29.2999 28.7263 29.7549L30.9478 31.9764C31.3761 32.4046 32.094 32.4361 32.5429 31.9873L33.8893 30.6408C34.3118 30.2183 34.3067 29.474 33.8785 29.0458Z" fill="white" fill-opacity="0.2"/>
<path d="M33.4945 39.0116L43.9761 28.5301C44.6625 27.8436 45.0021 26.9687 45.0491 26.0652L45.0755 26.0388L45.0487 26.0121C45.0946 24.9491 44.7152 23.8832 43.9122 23.0803L41.9049 21.0729L43.093 19.8848C43.5946 19.3832 43.5891 18.5857 43.0806 18.0771L41.7156 16.7121C41.2071 16.2036 40.4096 16.1981 39.9079 16.6998L38.7198 17.8879L31.3327 10.5007L32.5208 9.31261C33.0224 8.81097 33.0169 8.01347 32.5084 7.50494L31.1434 6.13992C30.6349 5.63138 29.8374 5.62593 29.3357 6.12757L28.1476 7.31566L26.1403 5.30828C25.3373 4.50533 24.2714 4.12589 23.2084 4.1718L23.182 4.1982C22.2786 4.24519 21.4037 4.58479 20.7172 5.27124L6.32819 19.6603C4.84968 21.1388 4.86639 23.5845 6.36523 25.0833L19.1857 37.9038C18.432 40.4239 19.0629 43.2725 21.0702 45.2799C23.9609 48.1705 28.6396 48.2025 31.491 45.3511C33.2071 43.635 33.8819 41.2472 33.4945 39.0116ZM20.9991 34.8592C20.7878 35.0704 20.6034 35.3084 20.4189 35.5464L8.16056 23.288C7.65202 22.7794 7.64657 21.9819 8.14821 21.4803L19.1314 10.4971L38.7234 30.0891L32.4926 36.32C32.1967 35.8129 31.848 35.3586 31.4198 34.9304C28.5292 32.0397 23.8505 32.0078 20.9991 34.8592ZM29.0228 42.038L27.3746 42.0268C27.2683 42.0261 27.1623 42.0785 27.0567 42.1841L26.1352 43.4803C25.9247 43.7979 25.419 43.7147 25.3102 43.3418L24.7944 41.7699C24.7405 41.6632 24.6602 41.5829 24.5535 41.529L23.0084 41.04C22.6355 40.9311 22.5523 40.4255 22.8698 40.215L24.1925 39.2671C24.2984 39.2146 24.3509 39.1087 24.3498 38.9492L24.3121 37.3274C24.3096 36.9552 24.7599 36.7191 25.0803 36.9339L26.3896 37.9264C26.4699 38.0067 26.603 38.0342 26.709 37.9817L28.2208 37.487C28.5922 37.3832 28.9402 37.7311 28.8364 38.1026L28.3153 39.6408C28.2628 39.7468 28.2903 39.8799 28.3706 39.9602L29.3363 41.2427C29.6311 41.5903 29.3949 42.0406 29.0228 42.038Z" fill="white" fill-opacity="0.2"/>
</svg>
