<svg width="44" height="44" viewBox="0 0 44 44" fill="none" xmlns="http://www.w3.org/2000/svg">
<path fill-rule="evenodd" clip-rule="evenodd" d="M35.6759 17.9553C38.991 19.815 39.7996 24.8281 37.4547 29.1135C35.1908 33.4797 28.1563 43.425 24.8412 41.5653C22.9006 40.4333 22.6581 35.1777 23.3858 30.2455L18.4536 25.3132L13.4405 20.3002C8.50826 21.0279 3.33347 20.8661 2.12063 18.8447C0.260941 15.5296 10.2062 8.49517 14.5725 6.2312C18.8578 3.88637 23.8709 4.69493 25.7306 8.01003C26.3775 8.98031 26.5392 10.274 26.4583 11.4868L29.3691 14.3977L32.28 17.3085C33.4119 17.1468 34.7056 17.3085 35.6759 17.9553ZM32.5225 22.5641L34.1396 24.1813L32.1182 26.2027L34.1396 28.2241L32.4417 29.922L30.4203 27.9006L28.3989 29.922L26.7817 28.3049L28.8031 26.2835L26.7009 24.1813L28.3989 22.4833L30.5011 24.5855L32.5225 22.5641ZM17.3216 10.4357C18.0493 11.1634 18.1301 12.3763 17.4024 13.104C16.5939 13.9125 15.381 13.8317 14.6533 13.104C13.9256 12.3763 13.8448 11.1634 14.6533 10.3549C15.381 9.62715 16.5939 9.70801 17.3216 10.4357ZM18.5344 15.8531C19.343 16.6616 19.2621 17.8745 18.5344 18.6022C17.8067 19.3299 16.5939 19.4107 15.7853 18.6022C15.0576 17.8745 15.1385 16.6616 15.8662 15.9339C16.5939 15.2062 17.8067 15.1254 18.5344 15.8531ZM22.8198 11.5677C23.6283 12.3763 23.5475 13.5891 22.8198 14.3168C22.0921 15.0445 20.8792 15.1254 20.0707 14.3168C19.343 13.5891 19.4238 12.3763 20.1515 11.6486C20.8792 10.9209 22.0921 10.84 22.8198 11.5677Z" fill="white" fill-opacity="0.2"/>
</svg>
