<svg width="20" height="15" viewBox="0 0 20 15" fill="none" xmlns="http://www.w3.org/2000/svg">
<path d="M17.5 0H2.5C1.11937 0 0 1.11937 0 2.5V12.5C0 13.8806 1.11937 15 2.5 15H17.5C18.8806 15 20 13.8806 20 12.5V2.5C20 1.11937 18.8806 0 17.5 0ZM13.385 6.67113L18.6768 2.13621C18.7134 2.2534 18.75 2.37059 18.75 2.5V12.5C18.75 12.5867 18.717 12.6636 18.7 12.7454L13.385 6.67113ZM17.5 1.25C17.583 1.25 17.6562 1.28176 17.7344 1.29762L10 7.92727L2.26562 1.29762C2.34375 1.28176 2.41699 1.25 2.5 1.25H17.5ZM1.29945 12.7441C1.28234 12.6623 1.25 12.5867 1.25 12.5V2.5C1.25 2.37059 1.28723 2.2534 1.32387 2.13621L6.61379 6.66992L1.29945 12.7441ZM2.5 13.75C2.37367 13.75 2.25891 13.7134 2.14355 13.678L7.56348 7.4841L9.59352 9.22359C9.71008 9.32496 9.85535 9.375 10 9.375C10.1446 9.375 10.2899 9.32496 10.4065 9.22363L12.4365 7.48414L17.8564 13.678C17.7417 13.7134 17.627 13.75 17.5 13.75H2.5Z" fill="#20212B"/>
</svg>
