<svg width="32" height="33" viewBox="0 0 32 33" fill="none" xmlns="http://www.w3.org/2000/svg">
<path d="M31.7468 9.09299L16.2521 0.0884005C16.0956 -0.00212309 15.904 -0.00212309 15.7476 0.0884005L0.253156 9.09299C0.0963555 9.18423 0 9.35342 0 9.53591V10.7296C0 11.0119 0.226489 11.2404 0.5056 11.2404H31.4944C31.7735 11.2404 32 11.0119 32 10.7296V9.53591C32 9.35342 31.9036 9.18423 31.7468 9.09299ZM16 8.77579C14.6044 8.77579 13.4724 7.6324 13.4724 6.22245C13.4724 4.81144 14.6044 3.66875 16 3.66875C17.3956 3.66875 18.5276 4.81179 18.5276 6.22245C18.5276 7.6324 17.3956 8.77579 16 8.77579Z" fill="#93979F"/>
<path d="M3.77038 12.6753V25.9205H2.27989C2.12664 25.9205 2.0022 26.0466 2.0022 26.2014V27.8703C2.0022 28.0259 2.12664 28.1516 2.27989 28.1516H29.7202C29.8735 28.1516 29.9979 28.0259 29.9979 27.8703V26.2014C29.9979 26.0466 29.8735 25.9205 29.7202 25.9205H28.2298V12.6753H3.77038ZM13.6374 25.9205H8.35633V18.1588C8.35633 16.6856 9.53855 15.4912 10.9967 15.4912C12.4552 15.4912 13.637 16.686 13.637 18.1588V25.9205H13.6374ZM23.6438 25.9205H18.3627V18.1588C18.3627 16.6856 19.5446 15.4912 21.0031 15.4912C22.4616 15.4912 23.6434 16.686 23.6434 18.1588V25.9205H23.6438Z" fill="#93979F"/>
<path d="M0.195557 29.9145V31.7397C0.195557 31.8952 0.319645 32.0206 0.473601 32.0206H31.5264C31.6804 32.0206 31.8044 31.8952 31.8044 31.7397V29.9145C31.8044 29.7593 31.6804 29.6335 31.5264 29.6335H0.473601C0.319645 29.6335 0.195557 29.7593 0.195557 29.9145Z" fill="#93979F"/>
</svg>
