<svg width="42" height="24" viewBox="0 0 42 24" fill="none" xmlns="http://www.w3.org/2000/svg">
<path d="M41.0591 15.5544C39.5118 15.0169 37.1244 14.3898 34.4717 14.345C34.0296 15.2856 33.4107 16.2711 32.7033 17.1669C30.1833 20.392 26.8233 22.3181 24.1265 23.4379C26.4254 23.9755 29.4759 24.3338 32.5707 23.5275C36.7707 22.4525 39.9539 19.6305 41.6339 17.794C42.297 17.1221 42.0318 15.9127 41.0591 15.5544Z" fill="#93979F"/>
<path d="M9.36012 17.1668C8.65275 16.271 8.07801 15.2855 7.59169 14.3001C4.89485 14.3001 2.50747 14.972 0.960102 15.5095C-0.0125305 15.8231 -0.322004 17.0773 0.385365 17.8387C2.06537 19.6305 5.24853 22.4972 9.44853 23.5274C12.5433 24.2889 15.5938 23.9754 17.8928 23.4379C15.4612 22.4076 11.9243 20.4815 9.36012 17.1668Z" fill="#93979F"/>
<path d="M24.4359 21.198C26.6022 20.1678 29.2107 18.5104 31.1559 16.002C33.8086 12.553 34.6044 8.29765 34.8254 5.87883C34.9138 4.8486 33.9412 4.08712 32.9686 4.40067C31.4212 4.93818 29.1664 5.92363 27.0443 7.58096C27.2654 8.65599 27.3538 9.77582 27.3538 10.8956C27.398 15.151 25.7622 18.8688 24.4359 21.198Z" fill="#93979F"/>
<path d="M17.5833 21.1532C16.257 18.824 14.6654 15.1062 14.6654 10.9404C14.6654 9.77582 14.7981 8.65599 14.9749 7.58096C12.8528 5.92363 10.5981 4.93818 9.05068 4.40067C8.07805 4.08712 7.10542 4.8486 7.19384 5.87883C7.41489 8.34244 8.21068 12.5978 10.8633 16.0468C12.8086 18.4656 15.417 20.123 17.5833 21.1532Z" fill="#93979F"/>
<path d="M22.1812 0.638299C21.6506 -0.212766 20.3685 -0.212766 19.838 0.638299C18.5117 2.69877 16.5664 6.55097 16.5664 10.9407C16.5664 15.3304 18.5117 19.1378 19.838 21.2431C20.3685 22.0941 21.6506 22.0941 22.1812 21.2431C23.5075 19.1826 25.4527 15.3304 25.4527 10.9407C25.4527 6.55097 23.5075 2.69877 22.1812 0.638299Z" fill="#93979F"/>
</svg>
