<svg width="38" height="23" viewBox="0 0 38 23" fill="none" xmlns="http://www.w3.org/2000/svg">
<path fill-rule="evenodd" clip-rule="evenodd" d="M22.1654 2.93617C16.203 2.8383 15.6166 2.44681 6.42862 1.07659C-1.78189 -0.0978741 -2.4661 7.82979 6.42862 6.65532C15.6166 5.38298 16.203 5.18723 22.1654 4.89362C22.6542 6.45957 23.8271 7.82979 26.0752 7.73191L36.1429 7.04681C37.1203 7.04681 37.7068 7.04681 37.9023 6.16596L26.3684 6.26383C25.782 6.26383 25.782 5.28511 26.3684 5.28511L38 5.28511C38 4.89362 38 4.69787 38 4.40426L26.3684 4.40425C25.782 4.40425 25.782 3.32766 26.3684 3.32766L38 3.32766C38 3.13191 38 2.8383 38 2.54468L26.3684 2.54468C25.782 2.54468 25.782 1.56596 26.3684 1.56596L37.9023 1.56596C37.7068 0.685106 37.1203 0.782979 36.1429 0.685106L25.9775 -5.25522e-07C23.8271 -6.19518e-07 22.5564 1.37021 22.1654 2.93617Z" fill="#93979F"/>
<path fill-rule="evenodd" clip-rule="evenodd" d="M20.1129 18.2044C20.6017 20.8469 23.4362 22.9022 26.7595 23.0001C30.5716 23.0001 38.0001 20.3576 38.0001 17.2256C38.0001 13.9959 30.7671 11.4512 26.955 11.4512C23.4362 11.4512 20.6017 13.4086 20.1129 16.149C14.2483 15.9533 15.4212 15.6597 6.23325 14.3873C-1.78177 13.115 -2.36824 20.8469 6.23325 19.7703C15.4212 18.4001 14.1505 18.3022 20.1129 18.2044Z" fill="#93979F"/>
</svg>
